<!DOCTYPE svg PUBLIC "-//W3C//DTD SVG 20010904//EN" "http://www.w3.org/TR/2001/REC-SVG-20010904/DTD/svg10.dtd">
<svg version="1.0" xmlns="http://www.w3.org/2000/svg" width="1024px" height="1024px" viewBox="0 0 10240 10240" preserveAspectRatio="xMidYMid meet">
<g id="layer101" fill="#000000" stroke="none">
 <path d="M4805 10034 c-672 -52 -1268 -210 -1840 -489 -1421 -693 -2431 -2036 -2694 -3585 -57 -331 -65 -441 -65 -840 0 -399 8 -509 65 -840 347 -2039 1970 -3662 4009 -4009 331 -57 441 -65 840 -65 390 0 506 8 813 59 888 149 1708 534 2398 1126 142 122 411 390 529 529 580 679 968 1508 1115 2387 51 307 59 423 59 813 0 390 -8 506 -59 813 -225 1345 -997 2532 -2140 3292 -560 372 -1203 628 -1870 745 -272 47 -445 62 -785 65 -179 1 -347 1 -375 -1z"/>
 </g>
<g id="layer102" fill="#f5de19" stroke="none">
 <path d="M4805 10034 c-672 -52 -1268 -210 -1840 -489 -1421 -693 -2431 -2036 -2694 -3585 -57 -331 -65 -441 -65 -840 0 -399 8 -509 65 -840 347 -2039 1970 -3662 4009 -4009 331 -57 441 -65 840 -65 390 0 506 8 813 59 888 149 1708 534 2398 1126 142 122 411 390 529 529 580 679 968 1508 1115 2387 51 307 59 423 59 813 0 390 -8 506 -59 813 -225 1345 -997 2532 -2140 3292 -560 372 -1203 628 -1870 745 -272 47 -445 62 -785 65 -179 1 -347 1 -375 -1z m-3035 -3939 l0 -75 -47 -1 c-123 -1 -155 -42 -157 -197 0 -53 1 -191 4 -307 5 -226 0 -260 -46 -321 -13 -17 -44 -41 -70 -53 l-47 -22 50 -24 c28 -12 59 -36 70 -51 43 -62 48 -97 43 -319 -7 -312 -5 -394 13 -438 20 -46 63 -67 137 -67 l50 0 0 -76 0 -76 -127 4 c-151 4 -207 24 -250 89 -54 82 -62 184 -41 509 6 102 8 202 4 222 -13 71 -96 138 -171 138 l-35 0 0 84 0 84 52 11 c72 16 113 44 139 97 21 44 21 52 13 202 -5 87 -9 225 -9 307 0 178 13 230 75 290 50 49 105 63 243 64 l107 1 0 -75z m6950 64 c152 -34 198 -156 178 -472 -16 -262 -15 -348 5 -384 24 -46 75 -81 135 -94 l52 -11 0 -84 0 -84 -33 0 c-46 0 -118 -39 -143 -77 -31 -46 -36 -96 -24 -251 16 -205 15 -407 -3 -465 -20 -63 -59 -112 -110 -139 -36 -19 -62 -23 -174 -26 l-133 -4 0 75 0 75 70 4 c55 3 74 8 94 27 43 40 48 91 40 387 -8 311 -3 353 53 415 19 21 50 43 69 49 19 6 34 15 33 18 0 4 -23 18 -52 32 -41 20 -56 35 -77 75 l-25 50 0 325 c0 362 -1 371 -65 402 -20 10 -58 18 -87 18 l-53 0 0 75 0 75 103 0 c56 0 122 -5 147 -11z m-6425 -359 c55 -34 80 -84 80 -160 -1 -42 -7 -76 -18 -97 -64 -119 -245 -124 -312 -9 -27 47 -34 131 -14 183 37 99 170 141 264 83z m670 0 c55 -34 80 -84 80 -160 -1 -42 -7 -76 -18 -97 -64 -119 -245 -124 -312 -9 -27 47 -34 131 -14 183 37 99 170 141 264 83z m670 0 c55 -34 80 -84 80 -160 -1 -42 -7 -76 -18 -97 -64 -119 -245 -124 -312 -9 -27 47 -34 131 -14 183 37 99 170 141 264 83z m1457 1 c107 -37 193 -112 241 -212 54 -110 57 -142 57 -791 l0 -598 -140 0 -139 0 -3 608 c-3 595 -3 608 -24 652 -40 84 -100 120 -204 120 -90 0 -171 -49 -231 -140 l-16 -24 -88 65 c-49 35 -93 67 -98 70 -25 17 124 179 199 217 41 21 127 48 179 56 62 9 210 -3 267 -23z m1363 3 c88 -23 191 -81 252 -141 171 -167 170 -464 -4 -623 -64 -59 -131 -94 -339 -181 -191 -79 -222 -94 -262 -133 -43 -40 -62 -76 -62 -120 0 -133 132 -209 321 -185 75 9 149 39 228 93 30 20 55 35 56 34 1 -2 32 -41 68 -86 37 -46 67 -88 67 -92 0 -10 -94 -81 -150 -113 -131 -75 -329 -105 -477 -74 -160 34 -296 134 -359 262 -27 56 -29 68 -29 175 0 110 2 119 32 181 64 129 145 187 448 316 176 75 224 102 259 143 87 104 32 264 -105 304 -67 20 -188 20 -262 1 -72 -19 -156 -61 -227 -114 -30 -23 -57 -41 -61 -41 -5 0 -61 61 -135 149 l-27 32 24 26 c82 88 274 178 432 204 73 11 241 2 312 -17z m955 -240 l0 -237 112 -139 c88 -110 114 -136 123 -126 7 7 105 176 220 376 l207 362 154 0 c85 0 154 -2 154 -4 0 -2 -108 -187 -241 -412 -133 -225 -261 -444 -286 -486 l-44 -77 245 -310 246 -311 -158 0 -157 0 -279 355 c-153 195 -282 358 -287 361 -5 3 -9 -145 -9 -355 l0 -361 -145 0 -145 0 0 800 0 800 145 0 145 0 0 -236z"/>
 </g>

</svg>